# xmcd
# 
# Track frame offsets:
#     150
#     12452
#     25128
#     37807
#     55275
#     69214
#     95856
#     106655
#     124871
#     135800
#     144410
#     167837
# 
# Disc length: 2404
# 
# Revision: 1
# Processed by: cddbd v1.5.2PL0 Copyright (c) Steve Scherf et al.
# Submitted via: fre:ac v1.0.31
# 
DISCID=9609620c
DTITLE=Commander Cody And His Lost Planet Airmen - Hot Licks, Cold Steel and Trucker's Favorites
DYEAR=1972
DGENRE=Rock/Pop
TTITLE0=Truck Stop Rock
TTITLE1=Truck Drivin' Man
TTITLE2=Rip It Up
TTITLE3=Cravin' Your Love
TTITLE4=It Should've Been Me
TTITLE5=Watch My .38
TTITLE6=Semi-Truck
TTITLE7=Kentucky Hills Of Tennessee
TTITLE8=Looking At The World Through A Windshield
TTITLE9=Diggy Liggy Lo
TTITLE10=Mama Hated Diesels
TTITLE11=Tutti Frutti
EXTD=
EXTT0=
EXTT1=
EXTT2=
EXTT3=
EXTT4=
EXTT5=
EXTT6=
EXTT7=
EXTT8=
EXTT9=
EXTT10=
EXTT11=
PLAYORDER=
